<mxfile host="65bd71144e">
    <diagram id="1ycbiQFayEArfO1JpNZU" name="SDMX - VTL">
        <mxGraphModel dx="712" dy="494" grid="0" gridSize="10" guides="1" tooltips="1" connect="1" arrows="1" fold="1" page="1" pageScale="1" pageWidth="1654" pageHeight="1169" math="0" shadow="0">
            <root>
                <mxCell id="0"/>
                <mxCell id="1" parent="0"/>
                <mxCell id="hvFgMO2sP3erS0Mrnt4W-3" value="SDMX file" style="rounded=1;whiteSpace=wrap;html=1;" parent="1" vertex="1">
                    <mxGeometry x="735" y="539" width="120" height="40" as="geometry"/>
                </mxCell>
                <mxCell id="r5dNbKfaTc3IfCNlbxce-11" style="edgeStyle=orthogonalEdgeStyle;rounded=0;orthogonalLoop=1;jettySize=auto;html=1;" parent="1" source="Tq20pD2vIBplVWwXeoZc-1" edge="1">
                    <mxGeometry relative="1" as="geometry">
                        <mxPoint x="976" y="685" as="targetPoint"/>
                    </mxGeometry>
                </mxCell>
                <mxCell id="Tq20pD2vIBplVWwXeoZc-1" value="VTL engine" style="rounded=1;whiteSpace=wrap;html=1;fillColor=#C0C0C0;strokeColor=#23445d;" parent="1" vertex="1">
                    <mxGeometry x="735" y="655" width="120" height="60" as="geometry"/>
                </mxCell>
                <mxCell id="ZYze7_MF27uXMl--vlt8-5" style="edgeStyle=orthogonalEdgeStyle;rounded=0;orthogonalLoop=1;jettySize=auto;html=1;" parent="1" source="ZYze7_MF27uXMl--vlt8-1" edge="1">
                    <mxGeometry relative="1" as="geometry">
                        <mxPoint x="732" y="695" as="targetPoint"/>
                    </mxGeometry>
                </mxCell>
                <mxCell id="r5dNbKfaTc3IfCNlbxce-5" value="" style="group" parent="1" vertex="1" connectable="0">
                    <mxGeometry x="466" y="654" width="139" height="124" as="geometry"/>
                </mxCell>
                <mxCell id="ZYze7_MF27uXMl--vlt8-1" value="" style="shape=document;whiteSpace=wrap;html=1;boundedLbl=1;" parent="r5dNbKfaTc3IfCNlbxce-5" vertex="1">
                    <mxGeometry x="63" y="10" width="72" height="62" as="geometry"/>
                </mxCell>
                <mxCell id="ZYze7_MF27uXMl--vlt8-2" value="" style="shape=document;whiteSpace=wrap;html=1;boundedLbl=1;" parent="r5dNbKfaTc3IfCNlbxce-5" vertex="1">
                    <mxGeometry x="47" y="12" width="72" height="62" as="geometry"/>
                </mxCell>
                <mxCell id="ZYze7_MF27uXMl--vlt8-3" value="Input dataset(s)" style="shape=document;whiteSpace=wrap;html=1;boundedLbl=1;" parent="r5dNbKfaTc3IfCNlbxce-5" vertex="1">
                    <mxGeometry x="28" y="24" width="72" height="62" as="geometry"/>
                </mxCell>
                <mxCell id="ZYze7_MF27uXMl--vlt8-4" value="CSV, Parquet, JDBC..." style="text;html=1;strokeColor=none;fillColor=none;align=center;verticalAlign=middle;whiteSpace=wrap;rounded=0;" parent="r5dNbKfaTc3IfCNlbxce-5" vertex="1">
                    <mxGeometry y="94" width="139" height="30" as="geometry"/>
                </mxCell>
                <mxCell id="r5dNbKfaTc3IfCNlbxce-6" value="" style="group" parent="1" vertex="1" connectable="0">
                    <mxGeometry x="949" y="636" width="139" height="124" as="geometry"/>
                </mxCell>
                <mxCell id="r5dNbKfaTc3IfCNlbxce-7" value="" style="shape=document;whiteSpace=wrap;html=1;boundedLbl=1;" parent="r5dNbKfaTc3IfCNlbxce-6" vertex="1">
                    <mxGeometry x="63" width="72" height="62" as="geometry"/>
                </mxCell>
                <mxCell id="r5dNbKfaTc3IfCNlbxce-8" value="" style="shape=document;whiteSpace=wrap;html=1;boundedLbl=1;" parent="r5dNbKfaTc3IfCNlbxce-6" vertex="1">
                    <mxGeometry x="47" y="12" width="72" height="62" as="geometry"/>
                </mxCell>
                <mxCell id="r5dNbKfaTc3IfCNlbxce-9" value="Output dataset(s)" style="shape=document;whiteSpace=wrap;html=1;boundedLbl=1;" parent="r5dNbKfaTc3IfCNlbxce-6" vertex="1">
                    <mxGeometry x="28" y="24" width="72" height="62" as="geometry"/>
                </mxCell>
                <mxCell id="r5dNbKfaTc3IfCNlbxce-10" value="CSV, Parquet, JDBC..." style="text;html=1;strokeColor=none;fillColor=none;align=center;verticalAlign=middle;whiteSpace=wrap;rounded=0;" parent="r5dNbKfaTc3IfCNlbxce-6" vertex="1">
                    <mxGeometry y="94" width="139" height="30" as="geometry"/>
                </mxCell>
                <mxCell id="UTozel-sNgLe_KjJfFok-4" style="edgeStyle=orthogonalEdgeStyle;rounded=0;orthogonalLoop=1;jettySize=auto;html=1;entryX=0.5;entryY=1;entryDx=0;entryDy=0;" parent="1" source="UTozel-sNgLe_KjJfFok-3" target="Tq20pD2vIBplVWwXeoZc-1" edge="1">
                    <mxGeometry relative="1" as="geometry"/>
                </mxCell>
                <mxCell id="UTozel-sNgLe_KjJfFok-3" value="VTL Code" style="whiteSpace=wrap;html=1;" parent="1" vertex="1">
                    <mxGeometry x="755" y="753" width="80" height="33" as="geometry"/>
                </mxCell>
                <mxCell id="0X4U3C7x06OTdeY29D7O-1" value="&lt;font style=&quot;font-size: 10px;&quot;&gt;Dataflows&lt;br&gt;Codelists&lt;br&gt; Mapping Schemes...&lt;/font&gt;" style="text;html=1;strokeColor=none;fillColor=none;align=right;verticalAlign=middle;whiteSpace=wrap;rounded=0;dashed=1;fontSize=7;" parent="1" vertex="1">
                    <mxGeometry x="664" y="603" width="118" height="30" as="geometry"/>
                </mxCell>
                <mxCell id="2" style="edgeStyle=orthogonalEdgeStyle;rounded=0;orthogonalLoop=1;jettySize=auto;html=1;exitX=0.5;exitY=1;exitDx=0;exitDy=0;entryX=0.5;entryY=0;entryDx=0;entryDy=0;" edge="1" parent="1" source="hvFgMO2sP3erS0Mrnt4W-3" target="Tq20pD2vIBplVWwXeoZc-1">
                    <mxGeometry relative="1" as="geometry">
                        <mxPoint x="742" y="705" as="targetPoint"/>
                        <mxPoint x="611" y="705" as="sourcePoint"/>
                    </mxGeometry>
                </mxCell>
            </root>
        </mxGraphModel>
    </diagram>
</mxfile>